<svg width="26" height="43" viewBox="0 0 26 43" fill="none" xmlns="http://www.w3.org/2000/svg">
<path d="M12.8755 14.0207C12.8045 14.066 9.78404 16.0091 6.31181 19.9422C6.04437 20.2459 5.76937 20.5663 5.48833 20.9032C5.28737 21.145 4.92474 21.1722 4.69054 20.9606C4.46993 20.7612 4.44576 20.4227 4.63614 20.1946C4.92474 19.8485 5.20578 19.5191 5.48078 19.2079C9.11468 15.0905 12.2454 13.1066 12.2862 13.0809C13.0462 12.6079 13.3016 11.6273 12.8695 10.8446C12.8559 10.8205 12.8423 10.7963 12.8271 10.7736C12.3391 9.98639 11.3041 9.74313 10.5169 10.2297C10.4579 10.2659 9.85203 10.6452 8.87896 11.3946C8.63418 11.5835 8.28062 11.5336 8.09628 11.2843C7.91647 11.0426 7.96482 10.7011 8.20356 10.5167C9.228 9.72802 9.87016 9.32459 9.93211 9.28681C11.2391 8.47693 12.9601 8.88187 13.77 10.1889C13.7942 10.2281 13.8168 10.2674 13.8395 10.3082C14.5572 11.6062 14.1341 13.235 12.877 14.0207H12.8755ZM6.1305 26.4742C6.38132 26.6585 6.73338 26.5996 6.91318 26.3442C7.05521 26.1418 7.19725 25.9453 7.33777 25.7519V23.9131C6.90109 24.4691 6.45385 25.0675 6.00509 25.7096C5.83132 25.9559 5.88874 26.2974 6.13201 26.4757L6.1305 26.4742ZM16.2314 12.963C16.3145 12.6533 16.1181 12.339 15.8038 12.277C15.5197 12.2211 15.2387 12.3919 15.1631 12.6714C14.9153 13.5886 14.3351 14.4166 13.4708 14.959C13.3953 15.0074 11.8405 16.0227 9.72662 18.0112C9.50149 18.2242 9.49393 18.5808 9.71 18.8014H9.71151C9.78857 18.8815 9.88376 18.9314 9.98349 18.9556C10.0817 18.954 10.1708 18.951 10.2494 18.9495C10.3355 18.9268 10.4186 18.8845 10.4882 18.8196C12.4932 16.9354 13.9785 15.9517 14.0677 15.8943C15.1707 15.1993 15.9141 14.1386 16.2314 12.9645V12.963ZM14.9062 17.3433C14.7295 17.085 14.3744 17.0245 14.1221 17.2104C13.4995 17.6667 12.4041 18.5249 11.0865 19.779L11.7075 20.7189C13.0493 19.4285 14.1659 18.5536 14.7763 18.1049C15.0181 17.9281 15.0755 17.5911 14.9062 17.3433ZM19.6628 7.08834C19.5888 6.95387 19.5087 6.81788 19.4271 6.68642C18.4918 5.17696 17.1969 4.02257 15.7207 3.26557C15.429 3.11598 15.074 3.24895 14.9516 3.55266C14.8458 3.81708 14.9576 4.11927 15.21 4.24922C16.5124 4.91707 17.6562 5.93546 18.4827 7.26966C18.5553 7.386 18.6248 7.50537 18.6897 7.62474C19.7958 9.62527 19.9907 11.8993 19.4014 13.9527C19.3213 14.2322 19.4724 14.5239 19.7459 14.6236C20.0481 14.7339 20.379 14.5631 20.4682 14.2534C21.133 11.9265 20.9124 9.35179 19.6598 7.08834H19.6628ZM15.7675 16.6498C15.979 16.9021 16.3628 16.9142 16.591 16.677C18.4132 14.7928 19.0781 12.0383 18.3014 9.52404C18.2062 9.2158 17.8723 9.05261 17.5716 9.16745C17.2981 9.27322 17.1561 9.57239 17.2422 9.85192C17.8995 11.9809 17.3374 14.3108 15.7947 15.9064C15.5968 16.1119 15.5847 16.4322 15.7675 16.6498ZM19.3682 15.6254C19.1022 15.4712 18.7638 15.5619 18.6097 15.8278C17.9599 16.955 17.0397 17.9432 15.8748 18.6851C15.7554 18.7652 14.0102 20.1281 12.324 21.6526L12.9435 22.5895C14.5905 21.0891 16.3598 19.6959 16.4822 19.6143C17.7983 18.7727 18.8378 17.6531 19.5706 16.3778C19.7217 16.1149 19.6296 15.778 19.3667 15.6254H19.3682Z" fill="#6EAEA1"/>
<path d="M1.88326 0.0285492H1.03711V0.660136C1.34233 0.427446 1.62639 0.21591 1.88326 0.0285492Z" fill="white"/>
<path d="M1.0352 2.06252V3.48435C3.13093 1.76788 4.56635 0.868848 4.67515 0.802365C5.14657 0.510747 5.63008 0.253883 6.12115 0.0302582H3.82447C3.37117 0.32641 2.37242 1.00635 1.03369 2.06403L1.0352 2.06252Z" fill="white"/>
<path d="M7.19132 1.40059C7.07346 1.10293 6.72896 0.966941 6.43885 1.10293C6.03844 1.2918 5.64559 1.50485 5.26029 1.74359C5.14394 1.81611 3.44561 2.87833 1.03711 4.92419V6.38984C3.75082 3.99645 5.72114 2.76349 5.84504 2.68643C6.19407 2.47036 6.55066 2.27696 6.91179 2.10773C7.17621 1.98232 7.30011 1.67408 7.19283 1.4021L7.19132 1.40059Z" fill="white"/>
<path d="M1.34082 7.60282C1.24109 7.69348 1.13834 7.78716 1.03711 7.88084V9.39786C1.39521 9.05487 1.74576 8.73001 2.08422 8.42328C2.30482 8.22383 2.32748 7.88688 2.13861 7.65873C1.93765 7.41697 1.57502 7.39128 1.34082 7.60131V7.60282Z" fill="white"/>
<path d="M13.0662 2.36911C10.8511 1.97021 8.4879 2.35551 6.42844 3.63078C6.32569 3.69424 4.91595 4.57665 2.86102 6.28707C2.62682 6.48199 2.59358 6.82952 2.78698 7.06523C2.9819 7.30245 3.33245 7.33569 3.56816 7.13927C5.5566 5.48475 6.91346 4.63558 7.01318 4.57363C8.83089 3.44795 10.916 3.10798 12.8697 3.46004C13.1734 3.51443 13.4635 3.31348 13.5164 3.00977C13.5678 2.70757 13.3668 2.42351 13.0677 2.36911H13.0662Z" fill="white"/>
<path d="M7.59645 5.51517C7.47255 5.59223 5.3043 6.94908 2.39567 9.64013C2.17054 9.84865 2.15694 10.1992 2.36545 10.4243C2.57397 10.648 2.923 10.6616 3.14814 10.4545C5.97064 7.84056 8.06032 6.53205 8.1812 6.45801C10.4915 5.02712 13.3941 5.3263 15.3629 6.99895C15.588 7.18933 15.9234 7.16666 16.1244 6.95059C16.339 6.71941 16.3178 6.35527 16.0776 6.15129C13.7522 4.17795 10.3253 3.82438 7.59645 5.51517Z" fill="white"/>
<path d="M1.14741 11.6388C1.11417 11.604 1.07639 11.5768 1.03711 11.5542V12.5333C1.07488 12.494 1.11417 12.4517 1.15043 12.4124C1.35895 12.1963 1.35744 11.8534 1.14741 11.6388Z" fill="white"/>
<path d="M7.794 8.01854C6.36008 9.10493 3.54362 11.4349 1.0354 14.1591V15.8303C1.12455 15.7275 1.21067 15.6218 1.29982 15.5205C3.88963 12.5862 6.97052 10.0312 8.46185 8.90246C8.69756 8.72417 8.75196 8.39175 8.58424 8.14848C8.40594 7.88708 8.04482 7.82816 7.794 8.02005V8.01854Z" fill="white"/>
<path d="M6.07904 12.2815C4.90954 13.3225 3.55571 14.6416 2.13237 16.2538C1.75916 16.6769 1.39501 17.1075 1.0354 17.5442V19.3181C1.65641 18.5203 2.29858 17.7421 2.96341 16.9882C4.35804 15.4077 5.67863 14.1203 6.81489 13.108C7.03851 12.91 7.0642 12.5701 6.87381 12.3404C6.67285 12.0987 6.31324 12.0715 6.07904 12.28V12.2815Z" fill="white"/>
<path d="M4.78584 17.4956C4.55315 17.2735 4.18296 17.2871 3.9684 17.5274C3.91099 17.5923 3.85357 17.6558 3.79615 17.7223C2.82611 18.8208 1.90743 19.9721 1.03711 21.1658V23.1467C2.28669 21.3018 3.52871 19.7455 4.64985 18.4747C4.70576 18.4113 4.76167 18.3478 4.81757 18.2859C5.02155 18.0577 5.00947 17.7072 4.78735 17.4956H4.78584Z" fill="white"/>
<path d="M3.74025 22.2447C3.49396 22.0528 3.13737 22.1012 2.95303 22.3535C2.31993 23.2178 1.67625 24.1622 1.03711 25.1821V26.2987C1.29246 26.4347 1.6143 26.3531 1.76842 26.1023C2.46045 24.9781 3.16003 23.9491 3.84601 23.0123C4.02431 22.7706 3.97747 22.4306 3.74025 22.2463V22.2447Z" fill="white"/>
<path d="M7.08844 30.0657C7.17154 29.9252 7.25313 29.7832 7.33624 29.6457V27.5772C6.82402 28.3478 6.31028 29.1773 5.80713 30.0657H7.08693H7.08844Z" fill="white"/>
<path d="M5.23005 27.864C4.96865 27.7083 4.63019 27.7929 4.47305 28.0528C4.08624 28.6905 3.70245 29.3628 3.32471 30.0655H4.59091C4.8659 29.5714 5.14241 29.0879 5.42194 28.6285C5.58211 28.3656 5.49598 28.0211 5.23156 27.864H5.23005Z" fill="white"/>
<path d="M17.0041 21.2351C16.8167 20.9752 16.448 20.9284 16.2002 21.1324C15.4614 21.7428 14.5548 22.5542 13.5847 23.5545L14.2118 24.5018C15.2135 23.4532 16.1534 22.6116 16.9089 21.9876C17.134 21.8017 17.1763 21.4723 17.0056 21.2351H17.0041Z" fill="white"/>
<path d="M15.7197 26.7837C17.3259 24.7801 18.9713 23.1724 20.4793 21.9017L19.9006 20.9392C18.3775 22.2084 16.7139 23.8191 15.0806 25.8151L15.7212 26.7837H15.7197Z" fill="white"/>
<path d="M21.1756 23.0602C20.9202 23.3005 20.6588 23.5362 20.3853 23.7598C20.1526 23.9502 20.1164 24.2917 20.3007 24.5289C20.4926 24.7752 20.8477 24.8145 21.0894 24.6165C21.3191 24.4292 21.5427 24.2327 21.7603 24.0318L21.1756 23.0602Z" fill="white"/>
<path d="M22.8614 25.8607L22.2857 24.9043C20.8035 26.0511 19.1444 27.556 17.5095 29.4901L17.8903 30.0657H18.4765C19.9785 28.3115 21.4955 26.9274 22.8614 25.8607Z" fill="white"/>
<path d="M19.5494 24.9463C19.3621 24.6925 19.0009 24.6471 18.7547 24.8451C18.1049 25.3709 17.1394 26.214 16.0833 27.3352L16.7118 28.2856C17.7982 27.1115 18.8 26.2367 19.4542 25.7078C19.6854 25.5205 19.7262 25.185 19.5494 24.9463Z" fill="white"/>
<path d="M21.741 29.5836C21.9647 29.3887 21.9949 29.0532 21.8105 28.8205C21.6141 28.5727 21.2515 28.5395 21.0127 28.7465C20.6123 29.094 20.1288 29.5398 19.6121 30.0671H21.2031C21.395 29.8903 21.5763 29.7271 21.741 29.5851V29.5836Z" fill="white"/>
<path d="M23.4795 26.8898C23.1939 27.1104 22.9023 27.3249 22.6031 27.5289C22.3568 27.6981 22.2858 28.0306 22.4445 28.2829C22.6107 28.5488 22.9657 28.6244 23.2256 28.4476C23.5082 28.2542 23.7832 28.0517 24.0552 27.8462L23.4795 26.8898Z" fill="white"/>
<path d="M25.1974 29.7403L24.6218 28.7853C24.2138 29.1011 23.7953 29.4048 23.3631 29.6919C23.3541 29.698 23.345 29.704 23.3374 29.7101C23.2619 29.766 23.1047 29.8884 22.8887 30.0651H24.7668C24.9119 29.9594 25.0539 29.8491 25.1959 29.7403H25.1974Z" fill="white"/>
<path d="M15.7801 9.23546C15.7408 9.16445 15.6985 9.09192 15.6547 9.02241C14.3552 6.92669 11.7503 6.12285 9.53673 7.0098C9.23303 7.13219 9.09704 7.48726 9.24662 7.77888C9.37808 8.03575 9.6833 8.14605 9.95225 8.03877C11.6748 7.34977 13.701 7.97531 14.7118 9.60565C14.7451 9.66005 14.7783 9.71595 14.8085 9.77186C14.949 10.0272 15.0594 10.2916 15.1379 10.5621C15.2135 10.822 15.4643 10.9897 15.7332 10.9595C16.0747 10.9217 16.3014 10.5848 16.2047 10.2554C16.1034 9.90785 15.9614 9.56485 15.7801 9.23546Z" fill="white"/>
<path d="M11.1009 11.1734C10.9937 11.2399 8.98406 12.4985 6.25977 15.1397C6.03766 15.3543 6.02708 15.7063 6.2356 15.9345C6.45167 16.1702 6.82186 16.1823 7.05153 15.9587C9.70782 13.3885 11.6751 12.1571 11.6993 12.1404C11.9667 11.9757 12.0483 11.6252 11.8836 11.3577C11.7174 11.0903 11.3669 11.0087 11.1009 11.1734Z" fill="white"/>
<path d="M9.61817 0.690507C9.57737 0.382268 9.79647 0.0997143 10.1047 0.0664729C14.4276 -0.397397 18.8457 1.58198 21.2844 5.51959C21.3857 5.68277 21.4824 5.84898 21.5745 6.01519C22.2847 7.29952 22.7259 8.66544 22.9148 10.0465C22.9586 10.3653 22.7183 10.6524 22.398 10.672C22.1079 10.6886 21.8556 10.4801 21.8163 10.193C21.644 8.94648 21.2451 7.71352 20.603 6.55309C20.5199 6.402 20.4307 6.2509 20.3401 6.10433C18.1325 2.54145 14.1345 0.749434 10.2241 1.171C9.92641 1.20273 9.65746 0.989677 9.61817 0.692015V0.690507Z" fill="white"/>
<path d="M22.5493 12.9403H22.5523C22.856 12.9917 23.0615 13.2818 23.0056 13.584C22.4904 16.3717 20.9703 18.9615 18.5966 20.7611C18.3473 20.95 17.9907 20.8941 17.8109 20.6372L17.8078 20.6342C17.6371 20.3909 17.69 20.0555 17.9272 19.8757C20.0743 18.2468 21.4478 15.9063 21.9147 13.386C21.9706 13.0884 22.2516 12.8889 22.5493 12.9388V12.9403Z" fill="white"/>
<path d="M1.88784 30.0686C4.29936 25.643 7.05387 22.3612 9.27954 20.1385L9.28256 20.1355C9.48654 19.9315 9.49107 19.6021 9.29011 19.3951L9.25234 19.3558C9.04836 19.1443 8.7099 19.1397 8.50138 19.3483C8.49987 19.3498 8.49685 19.3528 8.49534 19.3543C6.12311 21.7235 3.16613 25.2622 0.627686 30.0702H1.88633L1.88784 30.0686Z" fill="white"/>
<path fill-rule="evenodd" clip-rule="evenodd" d="M1.85619 32.5578C1.1777 32.5578 0.627686 33.1078 0.627686 33.7863V41.7715C0.627686 42.45 1.1777 43 1.85619 43H23.9692C24.6477 43 25.1977 42.45 25.1977 41.7715V33.7863C25.1977 33.1078 24.6477 32.5578 23.9692 32.5578H1.85619ZM16.262 37.6806C16.262 39.4773 17.6901 40.97 19.5052 40.97C21.2927 40.97 22.7392 39.4773 22.7392 37.6806C22.7392 35.884 21.2927 34.4006 19.5052 34.4006C17.6901 34.4006 16.262 35.884 16.262 37.6806ZM21.2835 37.6806C21.2835 38.7402 20.5556 39.6063 19.496 39.6063C18.4272 39.6063 17.7178 38.7402 17.7178 37.6806C17.7178 36.6211 18.4272 35.7642 19.496 35.7642C20.5556 35.7642 21.2835 36.6211 21.2835 37.6806ZM3.19861 34.5111H5.81532C7.28952 34.5111 7.95291 35.5615 7.95291 36.6119C7.95291 37.6714 7.28952 38.7034 5.81532 38.7034H4.64517V40.8594H3.19861V34.5111ZM4.64517 37.4411H5.75082C6.29443 37.4411 6.49713 37.0173 6.49713 36.6119C6.49713 36.2064 6.29443 35.7734 5.76003 35.7734H4.64517V37.4411ZM14.7169 40.8594H13.0308L11.575 38.6297H11.2801V40.8594H9.83359V34.5111H12.4319C13.9061 34.5111 14.5695 35.5615 14.5695 36.6119C14.5695 37.5056 13.9061 38.3625 13.086 38.5467L14.7169 40.8594ZM12.2384 35.7734H11.2801V37.4872H12.2015C12.8373 37.4872 13.1137 37.0725 13.1137 36.6487C13.1137 36.2249 12.8281 35.7734 12.2384 35.7734Z" fill="#D9D9D9"/>
<path fill-rule="evenodd" clip-rule="evenodd" d="M1.85619 32.5578C1.1777 32.5578 0.627686 33.1078 0.627686 33.7863V41.7715C0.627686 42.45 1.1777 43 1.85619 43H23.9692C24.6477 43 25.1977 42.45 25.1977 41.7715V33.7863C25.1977 33.1078 24.6477 32.5578 23.9692 32.5578H1.85619ZM16.262 37.6806C16.262 39.4773 17.6901 40.97 19.5052 40.97C21.2927 40.97 22.7392 39.4773 22.7392 37.6806C22.7392 35.884 21.2927 34.4006 19.5052 34.4006C17.6901 34.4006 16.262 35.884 16.262 37.6806ZM21.2835 37.6806C21.2835 38.7402 20.5556 39.6063 19.496 39.6063C18.4272 39.6063 17.7178 38.7402 17.7178 37.6806C17.7178 36.6211 18.4272 35.7642 19.496 35.7642C20.5556 35.7642 21.2835 36.6211 21.2835 37.6806ZM3.19861 34.5111H5.81532C7.28952 34.5111 7.95291 35.5615 7.95291 36.6119C7.95291 37.6714 7.28952 38.7034 5.81532 38.7034H4.64517V40.8594H3.19861V34.5111ZM4.64517 37.4411H5.75082C6.29443 37.4411 6.49713 37.0173 6.49713 36.6119C6.49713 36.2064 6.29443 35.7734 5.76003 35.7734H4.64517V37.4411ZM14.7169 40.8594H13.0308L11.575 38.6297H11.2801V40.8594H9.83359V34.5111H12.4319C13.9061 34.5111 14.5695 35.5615 14.5695 36.6119C14.5695 37.5056 13.9061 38.3625 13.086 38.5467L14.7169 40.8594ZM12.2384 35.7734H11.2801V37.4872H12.2015C12.8373 37.4872 13.1137 37.0725 13.1137 36.6487C13.1137 36.2249 12.8281 35.7734 12.2384 35.7734Z" fill="url(#paint0_linear_2394_23737)"/>
<defs>
<linearGradient id="paint0_linear_2394_23737" x1="25.1977" y1="32.5578" x2="22.4676" y2="47.4783" gradientUnits="userSpaceOnUse">
<stop offset="0.234896" stop-color="#DDAC2D"/>
<stop offset="1" stop-color="#7A6737"/>
</linearGradient>
</defs>
</svg>
