<svg width="29" height="33" viewBox="0 0 29 33" fill="none" xmlns="http://www.w3.org/2000/svg">
<path d="M15.3939 15.0731C15.319 15.1209 12.1335 17.1701 8.47163 21.318C8.18958 21.6383 7.89956 21.9762 7.60317 22.3315C7.39123 22.5865 7.00879 22.6152 6.7618 22.3921C6.52914 22.1817 6.50365 21.8248 6.70443 21.5841C7.00879 21.2192 7.30518 20.8718 7.5952 20.5436C11.4276 16.2013 14.7294 14.109 14.7724 14.0819C15.5739 13.5831 15.8432 12.5489 15.3875 11.7235C15.3731 11.698 15.3588 11.6725 15.3429 11.6486C14.8282 10.8184 13.7366 10.5618 12.9064 11.0749C12.8442 11.1132 12.2052 11.5132 11.179 12.3035C10.9209 12.5027 10.548 12.4501 10.3536 12.1872C10.1639 11.9322 10.2149 11.5721 10.4667 11.3777C11.5471 10.5459 12.2244 10.1204 12.2897 10.0806C13.6681 9.22646 15.4831 9.65352 16.3372 11.0319C16.3627 11.0733 16.3866 11.1148 16.4105 11.1578C17.1674 12.5266 16.7212 14.2444 15.3954 15.0731H15.3939ZM8.28041 28.2068C8.54494 28.4012 8.91622 28.339 9.10585 28.0697C9.25564 27.8562 9.40543 27.6491 9.55363 27.4451V25.5058C9.0931 26.0922 8.62142 26.7232 8.14815 27.4005C7.9649 27.6602 8.02545 28.0203 8.28201 28.2084L8.28041 28.2068ZM18.933 13.9576C19.0207 13.6309 18.8135 13.2995 18.4821 13.2341C18.1825 13.1752 17.8861 13.3553 17.8064 13.6501C17.5451 14.6173 16.9332 15.4906 16.0217 16.0626C15.942 16.1136 14.3023 17.1845 12.073 19.2815C11.8355 19.5062 11.8276 19.8823 12.0554 20.1149H12.057C12.1383 20.1994 12.2387 20.252 12.3439 20.2775C12.4474 20.2759 12.5415 20.2727 12.6243 20.2711C12.7152 20.2472 12.8028 20.2026 12.8761 20.1341C14.9907 18.1469 16.5571 17.1096 16.6511 17.049C17.8144 16.316 18.5984 15.1974 18.933 13.9592V13.9576ZM17.5355 18.5772C17.3491 18.3047 16.9746 18.241 16.7085 18.437C16.052 18.9182 14.8967 19.8233 13.5071 21.1459L14.1621 22.1371C15.5771 20.7762 16.7547 19.8536 17.3985 19.3803C17.6535 19.1939 17.714 18.8385 17.5355 18.5772ZM22.5519 7.76203C22.4738 7.6202 22.3894 7.47679 22.3033 7.33815C21.3169 5.74623 19.9513 4.52879 18.3944 3.73044C18.0869 3.57268 17.7124 3.71291 17.5833 4.03321C17.4718 4.31207 17.5897 4.63077 17.8558 4.76782C19.2294 5.47215 20.4357 6.54617 21.3074 7.95325C21.3839 8.07595 21.4572 8.20183 21.5257 8.32772C22.6921 10.4375 22.8977 12.8358 22.2762 15.0013C22.1918 15.2961 22.3511 15.6037 22.6395 15.7089C22.9583 15.8252 23.3072 15.6451 23.4012 15.3185C24.1024 12.8644 23.8697 10.1491 22.5487 7.76203H22.5519ZM18.4438 17.8458C18.6669 18.1119 19.0717 18.1246 19.3123 17.8745C21.2341 15.8873 21.9352 12.9824 21.1162 10.3308C21.0158 10.0057 20.6636 9.83359 20.3465 9.9547C20.0581 10.0662 19.9083 10.3818 19.9991 10.6766C20.6923 12.9218 20.0995 15.379 18.4725 17.0618C18.2638 17.2785 18.251 17.6163 18.4438 17.8458ZM22.2412 16.7654C21.9607 16.6028 21.6038 16.6984 21.4412 16.9789C20.756 18.1677 19.7856 19.2098 18.557 19.9922C18.4311 20.0767 16.5906 21.514 14.8122 23.1219L15.4656 24.1099C17.2025 22.5275 19.0685 21.0583 19.1976 20.9722C20.5855 20.0847 21.6818 18.9039 22.4547 17.5589C22.6141 17.2817 22.5168 16.9263 22.2396 16.7654H22.2412Z" fill="#6EAEA1"/>
<path d="M3.80057 0.317627H2.9082V0.983714C3.23009 0.738313 3.52967 0.515222 3.80057 0.317627Z" fill="white"/>
<path d="M2.90662 2.46244V3.96193C5.11682 2.1517 6.63066 1.20356 6.74539 1.13345C7.24257 0.825903 7.75249 0.555008 8.27038 0.319168H5.84825C5.37019 0.631496 4.31688 1.34858 2.90503 2.46403L2.90662 2.46244Z" fill="white"/>
<path d="M9.39858 1.76431C9.27428 1.45039 8.91096 1.30697 8.60501 1.45039C8.18273 1.64958 7.76841 1.87427 7.36207 2.12604C7.23937 2.20253 5.44826 3.32277 2.9082 5.48038V7.02609C5.77015 4.50197 7.84809 3.20166 7.97876 3.12039C8.34686 2.89252 8.72293 2.68855 9.10378 2.51008C9.38264 2.37782 9.51331 2.05274 9.40017 1.76591L9.39858 1.76431Z" fill="white"/>
<path d="M3.2285 8.3059C3.12333 8.40151 3.01497 8.50031 2.9082 8.59911V10.199C3.28587 9.83727 3.65556 9.49466 4.01251 9.17118C4.24516 8.96084 4.26906 8.60548 4.06987 8.36486C3.85794 8.1099 3.47549 8.08281 3.2285 8.30431V8.3059Z" fill="white"/>
<path d="M15.594 2.78608C13.2579 2.3654 10.7657 2.77174 8.59369 4.11667C8.48534 4.1836 6.99859 5.1142 4.83141 6.91806C4.58442 7.12362 4.54936 7.49013 4.75333 7.73872C4.95889 7.9889 5.32859 8.02396 5.57718 7.8168C7.67424 6.07191 9.10521 5.17635 9.21038 5.11102C11.1274 3.92385 13.3264 3.56531 15.3868 3.9366C15.7071 3.99397 16.0131 3.78203 16.0689 3.46174C16.123 3.14303 15.9111 2.84345 15.5956 2.78608H15.594Z" fill="white"/>
<path d="M9.82533 6.10361C9.69466 6.18488 7.40797 7.61585 4.34046 10.4539C4.10303 10.6738 4.08869 11.0435 4.30859 11.2809C4.5285 11.5168 4.8966 11.5311 5.13403 11.3128C8.11071 8.55603 10.3145 7.17605 10.442 7.09796C12.8785 5.58891 15.9396 5.90443 18.016 7.66844C18.2534 7.86923 18.6072 7.84532 18.8191 7.61745C19.0454 7.37364 19.0231 6.9896 18.7697 6.77448C16.3173 4.69335 12.7032 4.32047 9.82533 6.10361Z" fill="white"/>
<path d="M3.02453 12.5619C2.98947 12.5252 2.94963 12.4966 2.9082 12.4727V13.5053C2.94804 13.4638 2.98947 13.4192 3.02772 13.3778C3.24762 13.1499 3.24603 12.7882 3.02453 12.5619Z" fill="white"/>
<path d="M10.0345 8.74404C8.52227 9.88977 5.55197 12.347 2.90674 15.2201V16.9825C3.00076 16.8741 3.09159 16.7626 3.1856 16.6558C5.91688 13.5612 9.16605 10.8666 10.7388 9.67624C10.9874 9.48821 11.0448 9.13763 10.8679 8.88108C10.6799 8.6054 10.299 8.54325 10.0345 8.74563V8.74404Z" fill="white"/>
<path d="M8.22588 13.2396C6.9925 14.3376 5.56472 15.7287 4.06363 17.429C3.67003 17.8752 3.28599 18.3293 2.90674 18.7898V20.6606C3.56167 19.8192 4.23891 18.9986 4.94006 18.2034C6.41087 16.5366 7.8036 15.1789 9.00192 14.1113C9.23776 13.9025 9.26485 13.544 9.06407 13.3018C8.85213 13.0468 8.47287 13.0181 8.22588 13.238V13.2396Z" fill="white"/>
<path d="M6.86171 18.7387C6.61631 18.5044 6.22589 18.5188 5.99962 18.7721C5.93906 18.8407 5.87851 18.9076 5.81796 18.9777C4.79492 20.1362 3.82607 21.3504 2.9082 22.6093V24.6984C4.22604 22.7527 5.5359 21.1114 6.71829 19.7713C6.77725 19.7043 6.83621 19.6374 6.89517 19.5721C7.11029 19.3315 7.09755 18.9618 6.8633 18.7387H6.86171Z" fill="white"/>
<path d="M5.759 23.747C5.49925 23.5446 5.12318 23.5956 4.92878 23.8617C4.26109 24.7732 3.58226 25.7691 2.9082 26.8447V28.0223C3.17751 28.1658 3.51692 28.0797 3.67946 27.8152C4.40929 26.6296 5.14709 25.5444 5.87054 24.5565C6.05858 24.3015 6.00918 23.943 5.759 23.7486V23.747Z" fill="white"/>
<path d="M9.29026 31.9948C9.37791 31.8466 9.46396 31.6968 9.5516 31.5518V29.3703C9.0114 30.183 8.4696 31.0578 7.93896 31.9948H9.28867H9.29026Z" fill="white"/>
<path d="M7.33046 29.673C7.05479 29.5089 6.69784 29.5981 6.53211 29.8722C6.12418 30.5446 5.71942 31.2538 5.32104 31.9947H6.65641C6.94643 31.4737 7.23804 30.9637 7.53284 30.4793C7.70175 30.202 7.61092 29.8387 7.33206 29.673H7.33046Z" fill="white"/>
<path d="M19.747 22.6827C19.5494 22.4086 19.1606 22.3592 18.8992 22.5743C18.12 23.2181 17.1639 24.0738 16.1409 25.1287L16.8022 26.1278C17.8587 25.0219 18.8498 24.1343 19.6466 23.4762C19.884 23.2802 19.9286 22.9328 19.7486 22.6827H19.747Z" fill="white"/>
<path d="M18.3923 28.5339C20.0862 26.4209 21.8216 24.7255 23.4119 23.3853L22.8016 22.3702C21.1953 23.7088 19.4408 25.4075 17.7183 27.5125L18.3939 28.5339H18.3923Z" fill="white"/>
<path d="M24.1467 24.6076C23.8774 24.861 23.6018 25.1096 23.3133 25.3454C23.0679 25.5462 23.0297 25.9063 23.2241 26.1565C23.4265 26.4162 23.801 26.4577 24.0559 26.2489C24.2981 26.0513 24.534 25.8442 24.7634 25.6322L24.1467 24.6076Z" fill="white"/>
<path d="M25.9247 27.5603L25.3176 26.5516C23.7544 27.7611 22.0047 29.3482 20.2805 31.3879L20.6821 31.9951H21.3004C22.8843 30.145 24.4842 28.6853 25.9247 27.5603Z" fill="white"/>
<path d="M22.4321 26.596C22.2345 26.3283 21.8537 26.2805 21.5939 26.4893C20.9087 27.0438 19.8905 27.933 18.7766 29.1154L19.4395 30.1177C20.5852 28.8795 21.6417 27.9569 22.3317 27.3992C22.5755 27.2016 22.6186 26.8478 22.4321 26.596Z" fill="white"/>
<path d="M24.7426 31.4869C24.9784 31.2813 25.0103 30.9276 24.8159 30.6822C24.6087 30.4208 24.2263 30.3858 23.9745 30.6041C23.5522 30.9706 23.0423 31.4407 22.4973 31.9968H24.1753C24.3777 31.8104 24.5689 31.6383 24.7426 31.4885V31.4869Z" fill="white"/>
<path d="M26.5765 28.6456C26.2753 28.8783 25.9678 29.1045 25.6523 29.3197C25.3925 29.4981 25.3176 29.8487 25.485 30.1148C25.6602 30.3953 26.0347 30.475 26.3088 30.2885C26.6068 30.0845 26.8968 29.871 27.1836 29.6543L26.5765 28.6456Z" fill="white"/>
<path d="M28.3885 31.6521L27.7814 30.645C27.3511 30.9781 26.9097 31.2984 26.454 31.6011C26.4444 31.6075 26.4349 31.6139 26.4269 31.6202C26.3472 31.6792 26.1815 31.8083 25.9536 31.9947H27.9343C28.0873 31.8832 28.2371 31.7668 28.3869 31.6521H28.3885Z" fill="white"/>
<path d="M18.4557 10.0269C18.4143 9.95204 18.3697 9.87555 18.3235 9.80224C16.9531 7.59204 14.2058 6.7443 11.8713 7.67969C11.551 7.80877 11.4076 8.18324 11.5654 8.49079C11.704 8.76168 12.0259 8.87801 12.3096 8.76487C14.1262 8.03823 16.2631 8.69794 17.3291 10.4173C17.3642 10.4747 17.3992 10.5337 17.4311 10.5926C17.5793 10.8619 17.6956 11.1408 17.7785 11.426C17.8582 11.7001 18.1227 11.877 18.4063 11.8451C18.7665 11.8053 19.0055 11.4499 18.9035 11.1026C18.7967 10.736 18.647 10.3743 18.4557 10.0269Z" fill="white"/>
<path d="M13.5209 12.0713C13.4077 12.1414 11.2884 13.4688 8.41527 16.2542C8.18102 16.4805 8.16986 16.8518 8.38977 17.0924C8.61764 17.341 9.00805 17.3538 9.25027 17.1179C12.0517 14.4074 14.1264 13.1086 14.1519 13.0911C14.434 12.9174 14.52 12.5477 14.3463 12.2657C14.171 11.9836 13.8013 11.8976 13.5209 12.0713Z" fill="white"/>
<path d="M11.9578 1.01555C11.9148 0.690472 12.1458 0.392484 12.4709 0.357427C17.0299 -0.131781 21.6894 1.95572 24.2613 6.10841C24.3681 6.28051 24.47 6.4558 24.5673 6.63108C25.3162 7.98557 25.7815 9.4261 25.9807 10.8826C26.0269 11.2188 25.7735 11.5216 25.4357 11.5423C25.1298 11.5598 24.8636 11.3399 24.8222 11.0371C24.6406 9.7225 24.2199 8.42219 23.5426 7.19837C23.455 7.03902 23.361 6.87967 23.2654 6.7251C20.9372 2.9676 16.7208 1.07769 12.5968 1.52228C12.2829 1.55575 11.9992 1.33106 11.9578 1.01714V1.01555Z" fill="white"/>
<path d="M25.5948 13.9344H25.5979C25.9182 13.9886 26.135 14.2945 26.076 14.6132C25.5326 17.5533 23.9295 20.2845 21.4261 22.1824C21.1632 22.3816 20.7871 22.3226 20.5975 22.0517L20.5943 22.0486C20.4142 21.792 20.47 21.4382 20.7202 21.2486C22.9846 19.5308 24.4331 17.0625 24.9255 14.4045C24.9844 14.0906 25.2808 13.8802 25.5948 13.9328V13.9344Z" fill="white"/>
<path d="M3.8058 31.9982C6.34904 27.3309 9.25401 23.8697 11.6013 21.5257L11.6044 21.5225C11.8196 21.3074 11.8243 20.96 11.6124 20.7417L11.5726 20.7002C11.3574 20.4772 11.0005 20.4724 10.7806 20.6923C10.779 20.6939 10.7758 20.6971 10.7742 20.6987C8.27241 23.1973 5.15391 26.9293 2.47681 31.9998H3.8042L3.8058 31.9982Z" fill="white"/>
<path d="M1.24951 25.9166L2.82763 24.4061L2.82763 30.9468L1.24951 30.9468L1.24951 25.9166Z" fill="#7E6627"/>
<g filter="url(#filter0_d_1943_6797)">
<path d="M17.1924 30.9467L1.24951 30.9467L1.24951 26.0412L14.1265 26.0412L17.1924 30.9467Z" fill="url(#paint0_linear_1943_6797)"/>
</g>
<path fill-rule="evenodd" clip-rule="evenodd" d="M11.1512 26.8584C10.2475 26.8584 9.54584 27.6015 9.54584 28.496C9.54584 29.39 10.2523 30.1287 11.1512 30.1287C12.0501 30.1287 12.7566 29.3904 12.7566 28.496C12.7566 27.6015 12.055 26.8584 11.1512 26.8584ZM11.1468 27.3813C11.7522 27.3813 12.1971 27.8905 12.1971 28.496C12.1971 29.1014 11.7478 29.6058 11.1468 29.6058C10.5458 29.6058 10.1102 29.1014 10.1102 28.496C10.1102 27.8905 10.5414 27.3813 11.1468 27.3813ZM5.3305 26.9134C6.02772 26.9134 6.32603 27.4227 6.32603 27.927C6.32603 28.4314 6.02772 28.9407 5.3305 28.9407H4.61033V30.0734H4.05078V26.913H5.3305V26.9134ZM5.30314 28.4363C5.63322 28.4363 5.76648 28.1839 5.76648 27.927C5.76648 27.6702 5.63807 27.4134 5.31682 27.4134H4.61033V28.4363H5.30314ZM8.49604 30.0744L7.7163 28.9231H7.43167V30.0744H6.87212V26.914H8.1108C8.81729 26.914 9.11516 27.4232 9.11516 27.9276C9.11516 28.3817 8.81685 28.8406 8.33541 28.9046L9.15664 30.0744H8.49604ZM7.43167 27.414V28.4505H7.99607C8.39057 28.4505 8.55561 28.2259 8.55561 27.9369C8.55561 27.6478 8.37689 27.414 8.06932 27.414H7.43167Z" fill="white"/>
<defs>
<filter id="filter0_d_1943_6797" x="0.263189" y="25.0549" width="18.7046" height="7.66722" filterUnits="userSpaceOnUse" color-interpolation-filters="sRGB">
<feFlood flood-opacity="0" result="BackgroundImageFix"/>
<feColorMatrix in="SourceAlpha" type="matrix" values="0 0 0 0 0 0 0 0 0 0 0 0 0 0 0 0 0 0 127 0" result="hardAlpha"/>
<feOffset dx="0.394529" dy="0.394529"/>
<feGaussianBlur stdDeviation="0.690426"/>
<feComposite in2="hardAlpha" operator="out"/>
<feColorMatrix type="matrix" values="0 0 0 0 0 0 0 0 0 0 0 0 0 0 0 0 0 0 0.25 0"/>
<feBlend mode="normal" in2="BackgroundImageFix" result="effect1_dropShadow_1943_6797"/>
<feBlend mode="normal" in="SourceGraphic" in2="effect1_dropShadow_1943_6797" result="shape"/>
</filter>
<linearGradient id="paint0_linear_1943_6797" x1="1.24951" y1="26.0412" x2="9.43382" y2="36.4012" gradientUnits="userSpaceOnUse">
<stop offset="0.234896" stop-color="#DDAC2D"/>
<stop offset="1" stop-color="#7A6737"/>
</linearGradient>
</defs>
</svg>
