<svg width="80" height="79" viewBox="0 0 80 79" fill="none" xmlns="http://www.w3.org/2000/svg">
<path d="M36.5441 41.8041L31.9357 37.1958C31.2774 36.5374 30.5094 36.2083 29.6316 36.2083C28.7538 36.2083 27.9857 36.5374 27.3274 37.1958C26.6691 37.8541 26.3399 38.6359 26.3399 39.5411C26.3399 40.4463 26.6691 41.2281 27.3274 41.8864L34.2399 48.8812C34.8982 49.5395 35.6663 49.8687 36.5441 49.8687C37.4219 49.8687 38.1899 49.5395 38.8482 48.8812L52.8378 34.8916C53.4962 34.2333 53.8253 33.4515 53.8253 32.5463C53.8253 31.6411 53.4962 30.8593 52.8378 30.201C52.1795 29.5427 51.3977 29.2135 50.4925 29.2135C49.5873 29.2135 48.8055 29.5427 48.1472 30.201L36.5441 41.8041ZM40.0003 72.0874C39.6163 72.0874 39.2597 72.06 38.9305 72.0052C38.6014 71.9503 38.2722 71.868 37.943 71.7583C30.5368 69.2895 24.6392 64.7223 20.2503 58.0567C15.8614 51.3911 13.667 44.218 13.667 36.5374V20.9843C13.667 19.6128 14.0647 18.3784 14.8602 17.2812C15.6557 16.184 16.6844 15.3885 17.9462 14.8947L37.6962 7.48848C38.4642 7.21418 39.2323 7.07703 40.0003 7.07703C40.7684 7.07703 41.5364 7.21418 42.3045 7.48848L62.0545 14.8947C63.3163 15.3885 64.3449 16.184 65.1404 17.2812C65.9359 18.3784 66.3337 19.6128 66.3337 20.9843V36.5374C66.3337 44.218 64.1392 51.3911 59.7503 58.0567C55.3614 64.7223 49.4639 69.2895 42.0576 71.7583C41.7285 71.868 41.3993 71.9503 41.0701 72.0052C40.741 72.06 40.3844 72.0874 40.0003 72.0874Z" fill="#6EAEA1"/>
</svg>
