<svg width="27" height="31" viewBox="0 0 27 31" fill="none" xmlns="http://www.w3.org/2000/svg">
<g clip-path="url(#clip0_1943_6791)">
<path d="M13.4421 14.544C13.3677 14.5913 10.2384 16.6007 6.6409 20.6702C6.36339 20.9834 6.07912 21.3156 5.78807 21.6648C5.57937 21.916 5.20372 21.943 4.96231 21.7245H4.96118C4.73331 21.5173 4.70849 21.1692 4.90478 20.9327C5.20372 20.5745 5.49589 20.2332 5.78017 19.9111C9.54573 15.6512 12.789 13.599 12.8307 13.5731C13.6181 13.0843 13.8821 12.0683 13.4343 11.2596C13.4207 11.2348 13.406 11.21 13.3903 11.1853C12.8849 10.3709 11.8121 10.1197 10.9965 10.6232C10.9355 10.6604 10.3072 11.0535 9.29981 11.8284C9.04599 12.0244 8.67936 11.9726 8.48871 11.7146C8.30258 11.4635 8.35221 11.1109 8.59926 10.9206C9.66079 10.104 10.3264 9.68834 10.3907 9.64891C11.7444 8.81204 13.5279 9.22991 14.3661 10.5827C14.3909 10.6232 14.4157 10.6638 14.4382 10.7054C15.1817 12.048 14.7428 13.7331 13.4399 14.5463L13.4421 14.544ZM6.45364 27.4261C6.71423 27.6164 7.0786 27.5556 7.26361 27.2921C7.41026 27.0826 7.55691 26.8787 7.70356 26.6793V24.7769C7.2512 25.3525 6.78868 25.9709 6.32166 26.6343C6.14229 26.89 6.20095 27.2414 6.45251 27.4261H6.45364ZM16.9178 13.4492C17.0047 13.1293 16.7993 12.8038 16.4745 12.7396C16.18 12.681 15.8878 12.859 15.81 13.1485C15.5539 14.0969 14.9515 14.954 14.057 15.5138C13.9791 15.5645 12.3682 16.6143 10.1775 18.671C9.94395 18.8906 9.93605 19.2601 10.1605 19.4887H10.1617C10.2418 19.5721 10.3399 19.6239 10.4437 19.6475C10.5463 19.6453 10.6377 19.643 10.7189 19.6408C10.8081 19.6171 10.8938 19.5743 10.966 19.5067C13.0428 17.5581 14.5826 16.541 14.6751 16.4802C15.8179 15.7616 16.5873 14.6645 16.9167 13.4503L16.9178 13.4492ZM15.5449 17.9805C15.361 17.7136 14.9933 17.6505 14.7316 17.842C14.0874 18.3151 12.9514 19.2026 11.5864 20.499L12.2306 21.4722C13.6204 20.1375 14.7778 19.233 15.4107 18.7678C15.6611 18.5842 15.7209 18.2362 15.5449 17.9805ZM20.4735 7.37256C20.3957 7.23289 20.3145 7.09322 20.2299 6.95694C19.2608 5.39469 17.9195 4.20188 16.3898 3.41794C16.0886 3.26363 15.7186 3.40105 15.5934 3.7153C15.484 3.989 15.6002 4.30213 15.8619 4.43616C17.2122 5.12774 18.3967 6.18088 19.2529 7.56066C19.3274 7.68118 19.3996 7.80395 19.4684 7.92785C20.6145 9.99696 20.8165 12.3499 20.2062 14.4742C20.1238 14.7625 20.2806 15.0655 20.5626 15.168C20.8763 15.2818 21.2192 15.105 21.3106 14.7851C21.9998 12.3781 21.7708 9.71537 20.4735 7.37256ZM16.4384 17.2642C16.6583 17.5244 17.0543 17.5379 17.2923 17.2935C19.1796 15.3449 19.8689 12.4941 19.0634 9.89333C18.9653 9.57457 18.6189 9.40562 18.3076 9.52501C18.0244 9.63427 17.8767 9.94289 17.9658 10.2335C18.6471 12.4355 18.0639 14.847 16.4666 16.496C16.2612 16.7077 16.2488 17.04 16.4384 17.2653V17.2642ZM20.1689 16.2031C19.8937 16.0432 19.5417 16.1378 19.3838 16.4126C18.7114 17.5784 17.7571 18.6011 16.55 19.3682C16.4259 19.4515 14.6187 20.8606 12.8713 22.4375L13.5132 23.4062C15.22 21.8552 17.0532 20.4134 17.1806 20.3278C18.5445 19.4583 19.6218 18.2993 20.381 16.9803C20.5378 16.7077 20.4419 16.3608 20.1701 16.2031H20.1689Z" fill="#6EAEA1"/>
<path d="M2.05206 0.0693331H1.17554V0.72149C1.49253 0.480451 1.78696 0.261939 2.05206 0.0682068V0.0693331Z" fill="white"/>
<path d="M1.17554 2.17334V3.64323C3.34711 1.8681 4.83506 0.937737 4.94674 0.869029C5.4352 0.567168 5.93607 0.301349 6.44597 0.0693207H4.06683C3.59641 0.376814 2.56196 1.07966 1.17554 2.17334Z" fill="white"/>
<path d="M7.55262 1.48964C7.43079 1.18102 7.07319 1.04135 6.77311 1.18215C6.35798 1.37701 5.95074 1.59777 5.55139 1.84444C5.43069 1.91878 3.67087 3.0181 1.17554 5.13564V6.6517C3.98673 4.17599 6.02858 2.89983 6.15605 2.82099C6.51704 2.59797 6.88592 2.39748 7.26158 2.22177C7.53683 2.09224 7.6643 1.77348 7.55149 1.49189L7.55262 1.48964Z" fill="white"/>
<path d="M1.49027 7.90534C1.38649 7.99883 1.28045 8.09682 1.17554 8.19368V9.76382C1.54668 9.40902 1.90992 9.07224 2.26076 8.75573C2.48863 8.54961 2.51345 8.20044 2.31716 7.96504C2.10847 7.71499 1.73281 7.68795 1.4914 7.90646L1.49027 7.90534Z" fill="white"/>
<path d="M13.6382 2.48985C11.3437 2.07761 8.89462 2.47521 6.76141 3.79417C6.65537 3.8595 5.19449 4.77297 3.06466 6.54134C2.82212 6.74295 2.78715 7.10339 2.98795 7.34668C3.18988 7.59109 3.55312 7.62601 3.79792 7.42327C5.85781 5.71122 7.26453 4.83266 7.36606 4.76959C9.24884 3.60494 11.4091 3.25465 13.4341 3.61846C13.7488 3.67477 14.0489 3.46753 14.103 3.15327C14.1572 2.84128 13.9485 2.54617 13.6371 2.48985H13.6382Z" fill="white"/>
<path d="M7.97102 5.74612C7.84242 5.82609 5.59639 7.22953 2.58327 10.0139C2.34975 10.229 2.33622 10.5928 2.55168 10.8248C2.76715 11.0569 3.12926 11.0704 3.36165 10.8552C6.28565 8.15201 8.45158 6.79813 8.57567 6.72154C10.9695 5.24152 13.9758 5.55126 16.0154 7.28021C16.2489 7.47732 16.5964 7.45367 16.8051 7.23065C17.0273 6.99187 17.0059 6.61567 16.7577 6.40504C14.3481 4.36409 10.798 3.99803 7.97102 5.74612Z" fill="white"/>
<path d="M1.28938 12.0807C1.25441 12.0447 1.21493 12.0177 1.17432 11.9929V13.0066C1.2138 12.966 1.25328 12.9221 1.29277 12.8816C1.50936 12.6574 1.50823 12.3026 1.28938 12.0807Z" fill="white"/>
<path d="M8.17758 8.3356C6.69189 9.4597 3.77465 11.8701 1.17554 14.6871V16.416C1.26804 16.3102 1.35716 16.2009 1.44966 16.095C4.13338 13.0595 7.32588 10.4171 8.87023 9.24907C9.1139 9.06435 9.1703 8.72081 8.9977 8.46851C8.81269 8.19818 8.4393 8.13736 8.17871 8.3356H8.17758Z" fill="white"/>
<path d="M6.40084 12.7453C5.18928 13.822 3.78593 15.1861 2.31152 16.8553C1.92459 17.2923 1.54781 17.7395 1.17554 18.1912V20.026C1.81855 19.2004 2.48412 18.395 3.17338 17.6156C4.61846 15.9813 5.98684 14.6488 7.16456 13.6024C7.39582 13.3974 7.42289 13.046 7.22548 12.8083C7.01791 12.5583 6.64451 12.5301 6.40197 12.7464L6.40084 12.7453Z" fill="white"/>
<path d="M5.05936 18.1393C4.81795 17.9096 4.4344 17.9242 4.21217 18.172C4.15238 18.2385 4.09259 18.306 4.0328 18.3736C3.02767 19.5101 2.07557 20.7018 1.1731 21.9351V23.9851C2.46814 22.0771 3.75529 20.4664 4.91609 19.1519C4.97475 19.0866 5.03229 19.0213 5.08982 18.9571C5.3019 18.7205 5.28836 18.359 5.05823 18.1393H5.05936Z" fill="white"/>
<path d="M3.97658 23.0514C3.72163 22.8531 3.35162 22.9027 3.16097 23.1629C2.50442 24.0561 1.83772 25.0337 1.17554 26.088V27.2425C1.44064 27.3833 1.77342 27.2988 1.93361 27.0386C2.64995 25.8763 3.37418 24.8107 4.086 23.8421C4.26988 23.592 4.22137 23.2406 3.97658 23.0502V23.0514Z" fill="white"/>
<path d="M7.44626 31.1419C7.53199 30.9966 7.61773 30.8502 7.70347 30.7072V28.5671C7.17214 29.3646 6.64081 30.2217 6.11963 31.1408H7.44626V31.1419Z" fill="white"/>
<path d="M5.51956 28.8645C5.24882 28.7034 4.89799 28.7912 4.73442 29.0604C4.33282 29.7205 3.93573 30.4154 3.54541 31.1419H4.85625C5.14053 30.6306 5.42706 30.1305 5.71698 29.6552C5.88281 29.3826 5.79369 29.0278 5.51956 28.8645Z" fill="white"/>
<path d="M17.7189 22.0084C17.5237 21.7392 17.1424 21.6907 16.8863 21.9025C16.1215 22.5344 15.1818 23.3735 14.1755 24.4086L14.8242 25.3886C15.862 24.3028 16.8367 23.4321 17.6185 22.7878C17.852 22.5952 17.896 22.255 17.7189 22.0095V22.0084Z" fill="white"/>
<path d="M16.3877 27.7471C18.0527 25.6746 19.7562 24.011 21.3186 22.6977L20.7184 21.702C19.1402 23.0153 17.4165 24.6812 15.7244 26.7458L16.3877 27.7471Z" fill="white"/>
<path d="M22.0404 23.895C21.7764 24.1439 21.5057 24.3872 21.2214 24.6181C20.98 24.8141 20.9427 25.1678 21.1334 25.4133C21.3319 25.6679 21.7008 25.7084 21.9512 25.5046C22.1904 25.3097 22.4205 25.107 22.6473 24.8997L22.0415 23.8939L22.0404 23.895Z" fill="white"/>
<path d="M23.7879 26.792L23.1911 25.803C21.6558 26.9891 19.9366 28.5468 18.2422 30.5472L18.6359 31.1419H19.2439C20.7996 29.3263 22.3721 27.8947 23.7879 26.792Z" fill="white"/>
<path d="M20.356 25.847C20.1608 25.5846 19.7874 25.5373 19.5325 25.7422C18.859 26.2863 17.8584 27.1592 16.7642 28.3171L17.4151 29.3004C18.5409 28.0851 19.5799 27.1806 20.2556 26.6332C20.4947 26.4395 20.5376 26.0925 20.3549 25.8459L20.356 25.847Z" fill="white"/>
<path d="M22.626 30.643C22.8584 30.4413 22.8899 30.0933 22.6982 29.8534C22.4951 29.5966 22.1195 29.5617 21.8713 29.7768C21.4562 30.1361 20.9553 30.5968 20.4194 31.1431H22.0687C22.2672 30.9595 22.4545 30.7916 22.626 30.6441V30.643Z" fill="white"/>
<path d="M24.4285 27.8564C24.1319 28.0839 23.8307 28.3058 23.5216 28.5175C23.2666 28.6921 23.1933 29.0357 23.358 29.297C23.5306 29.5718 23.8983 29.6507 24.1668 29.4671C24.459 29.2677 24.7444 29.0582 25.0253 28.8442L24.4285 27.8553V27.8564Z" fill="white"/>
<path d="M26.2074 30.8063L25.6106 29.8174C25.1876 30.1429 24.7544 30.4594 24.3065 30.7556C24.2975 30.7612 24.2885 30.768 24.2795 30.7748C24.2016 30.8333 24.0381 30.9595 23.8147 31.1419H25.7618C25.9129 31.0327 26.0596 30.9178 26.2074 30.8052V30.8063Z" fill="white"/>
<path d="M16.4506 9.59373C16.41 9.51939 16.366 9.44505 16.3209 9.37297C14.9751 7.20474 12.2756 6.37237 9.98217 7.29147C9.66743 7.41762 9.52642 7.78594 9.6821 8.08668C9.8186 8.35249 10.1356 8.46626 10.4131 8.35475C12.1977 7.64177 14.2971 8.28829 15.344 9.97556C15.3789 10.0319 15.4128 10.0893 15.4444 10.1468C15.591 10.4115 15.7038 10.6852 15.7862 10.9634C15.8652 11.2314 16.1235 11.406 16.4021 11.3745C16.7552 11.3351 16.9899 10.987 16.8906 10.6469C16.7857 10.2864 16.639 9.93276 16.4495 9.59148L16.4506 9.59373Z" fill="white"/>
<path d="M11.6021 11.5986C11.4915 11.6673 9.40908 12.9694 6.58548 15.7019C6.35535 15.9238 6.34407 16.2888 6.56066 16.5242C6.78515 16.7686 7.16757 16.7798 7.40673 16.5489C10.1593 13.8896 12.1966 12.6157 12.2225 12.6C12.4989 12.4288 12.5847 12.0661 12.4132 11.7901C12.2417 11.5142 11.8785 11.4286 11.6021 11.5998V11.5986Z" fill="white"/>
<path d="M10.0657 0.754135C10.024 0.435378 10.2508 0.142527 10.57 0.108737C15.0485 -0.372215 19.6252 1.67662 22.1532 5.7495C22.257 5.91732 22.3585 6.08966 22.4544 6.26199C23.1899 7.59108 23.6468 9.00352 23.8431 10.4317C23.8882 10.7618 23.64 11.0591 23.3073 11.0783C23.0072 11.0963 22.7455 10.8789 22.7049 10.5827C22.5266 9.29299 22.1126 8.01684 21.4482 6.81728C21.3613 6.66184 21.2699 6.50528 21.1763 6.35322C18.8897 2.6678 14.7473 0.813832 10.6941 1.24973C10.385 1.28239 10.1064 1.06276 10.0657 0.754135Z" fill="white"/>
<path d="M23.463 13.4256H23.4664C23.7812 13.4785 23.9932 13.7781 23.9357 14.0924C23.401 16.9758 21.8273 19.6554 19.3669 21.5173C19.1086 21.7133 18.7386 21.6547 18.5525 21.3889L18.5502 21.3855C18.3731 21.1332 18.4284 20.7874 18.6743 20.6016C20.8989 18.9165 22.3225 16.4949 22.8065 13.8885C22.864 13.581 23.1551 13.3738 23.4642 13.4256H23.463Z" fill="white"/>
<path d="M2.05633 31.1453C4.55504 26.5667 7.40911 23.1719 9.71492 20.8719L9.7183 20.8685C9.92926 20.6579 9.93377 20.3177 9.7262 20.1026L9.68672 20.062C9.47464 19.8424 9.1238 19.839 8.90834 20.0542L8.90157 20.0609C6.44346 22.5107 3.3807 26.1725 0.75 31.1465H2.05407L2.05633 31.1453Z" fill="white"/>
</g>
<defs>
<clipPath id="clip0_1943_6791">
<rect width="25.37" height="30.96" fill="white" transform="translate(0.75 0.0400391)"/>
</clipPath>
</defs>
</svg>
