<svg width="54" height="64" viewBox="0 0 54 64" fill="none" xmlns="http://www.w3.org/2000/svg">
<path d="M26.5317 21.2402C26.4279 21.3064 22.0138 24.1461 16.9394 29.894C16.5485 30.3378 16.1467 30.806 15.7359 31.2984C15.4422 31.6517 14.9123 31.6915 14.57 31.3823C14.2476 31.0908 14.2123 30.5962 14.4905 30.2628C14.9123 29.7571 15.323 29.2757 15.7249 28.8208C21.0356 22.8035 25.6109 19.9042 25.6705 19.8667C26.7812 19.1755 27.1544 17.7424 26.5229 16.5986C26.503 16.5632 26.4831 16.5279 26.461 16.4948C25.7478 15.3443 24.2352 14.9888 23.0847 15.6999C22.9986 15.7528 22.1131 16.3071 20.6911 17.4024C20.3334 17.6784 19.8166 17.6055 19.5472 17.2412C19.2845 16.8878 19.3551 16.3888 19.704 16.1194C21.2012 14.9667 22.1396 14.3771 22.2302 14.3219C24.1402 13.1384 26.6554 13.7302 27.8389 15.6402C27.8743 15.6976 27.9074 15.7551 27.9405 15.8147C28.9894 17.7115 28.3711 20.0919 26.5339 21.2402H26.5317ZM16.6744 39.4399C17.041 39.7093 17.5555 39.6232 17.8182 39.25C18.0258 38.9541 18.2334 38.6671 18.4387 38.3844V35.6971C17.8006 36.5097 17.147 37.3841 16.4911 38.3226C16.2372 38.6825 16.3211 39.1816 16.6766 39.4422L16.6744 39.4399ZM31.4361 19.6944C31.5575 19.2418 31.2704 18.7825 30.8111 18.6919C30.396 18.6102 29.9853 18.8597 29.8749 19.2683C29.5127 20.6086 28.6648 21.8187 27.4017 22.6114C27.2913 22.6821 25.0191 24.166 21.9299 27.072C21.6008 27.3833 21.5898 27.9044 21.9056 28.2268H21.9078C22.0204 28.3439 22.1595 28.4167 22.3053 28.4521C22.4488 28.4499 22.5791 28.4454 22.6939 28.4432C22.8198 28.4101 22.9412 28.3483 23.0428 28.2533C25.973 25.4997 28.1437 24.0622 28.274 23.9783C29.8859 22.9625 30.9723 21.4124 31.4361 19.6966V19.6944ZM29.4995 26.0959C29.2411 25.7183 28.7222 25.63 28.3534 25.9016C27.4437 26.5685 25.8428 27.8227 23.9172 29.6555L24.8248 31.029C26.7856 29.1432 28.4175 27.8647 29.3096 27.2089C29.6629 26.9505 29.7468 26.4581 29.4995 26.0959ZM36.4508 11.1091C36.3426 10.9125 36.2256 10.7138 36.1064 10.5217C34.7395 8.31571 32.8471 6.62866 30.6897 5.52236C30.2635 5.30375 29.7446 5.49808 29.5657 5.94192C29.4112 6.32835 29.5746 6.76998 29.9433 6.95989C31.8468 7.9359 33.5184 9.42421 34.7262 11.374C34.8322 11.5441 34.9338 11.7185 35.0288 11.893C36.6451 14.8166 36.93 18.1399 36.0688 21.1408C35.9518 21.5493 36.1726 21.9755 36.5723 22.1212C37.0139 22.2824 37.4975 22.0329 37.6278 21.5802C38.5994 18.1796 38.277 14.4169 36.4464 11.1091H36.4508ZM30.7582 25.0824C31.0673 25.4512 31.6282 25.4688 31.9616 25.1221C34.6247 22.3685 35.5963 18.343 34.4613 14.6686C34.3221 14.2182 33.8341 13.9797 33.3947 14.1475C32.995 14.3021 32.7875 14.7393 32.9133 15.1478C33.8739 18.2591 33.0524 21.6641 30.7979 23.996C30.5086 24.2963 30.491 24.7644 30.7582 25.0824ZM36.0202 23.5852C35.6316 23.36 35.137 23.4925 34.9117 23.8811C33.9622 25.5284 32.6174 26.9726 30.9149 28.0568C30.7405 28.1738 28.19 30.1656 25.7257 32.3937L26.6311 33.7627C29.038 31.57 31.6238 29.5341 31.8026 29.4148C33.7259 28.1849 35.2452 26.5486 36.3161 24.6849C36.5369 24.3007 36.4022 23.8083 36.018 23.5852H36.0202Z" fill="#6EAEA1"/>
<path d="M10.4675 0.791725H9.23096V1.71474C9.67701 1.37468 10.0921 1.06554 10.4675 0.791725Z" fill="white"/>
<path d="M9.22828 3.76421V5.84211C12.291 3.33362 14.3888 2.01975 14.5478 1.92259C15.2367 1.49642 15.9433 1.12103 16.661 0.79422H13.3046C12.6421 1.22702 11.1825 2.2207 9.22607 3.76642L9.22828 3.76421Z" fill="white"/>
<path d="M18.2249 2.79687C18.0526 2.36186 17.5492 2.16312 17.1252 2.36186C16.54 2.63788 15.9659 2.94924 15.4028 3.29813C15.2328 3.40412 12.7508 4.95647 9.23096 7.94633V10.0883C13.1968 6.59052 16.0763 4.78864 16.2574 4.67603C16.7675 4.36026 17.2886 4.07762 17.8163 3.8303C18.2028 3.64702 18.3838 3.19655 18.2271 2.79908L18.2249 2.79687Z" fill="white"/>
<path d="M9.6748 11.8609C9.52906 11.9934 9.3789 12.1303 9.23096 12.2672V14.4843C9.75429 13.983 10.2666 13.5082 10.7612 13.06C11.0836 12.7685 11.1167 12.2761 10.8407 11.9426C10.547 11.5893 10.0171 11.5518 9.6748 11.8587V11.8609Z" fill="white"/>
<path d="M26.8106 4.21226C23.5734 3.6293 20.1199 4.19239 17.1101 6.05609C16.96 6.14883 14.8997 7.4384 11.8966 9.93806C11.5543 10.2229 11.5058 10.7308 11.7884 11.0753C12.0733 11.422 12.5856 11.4705 12.93 11.1835C15.836 8.76552 17.8189 7.52452 17.9647 7.43399C20.6211 5.7889 23.6684 5.29206 26.5236 5.80656C26.9674 5.88606 27.3914 5.59237 27.4687 5.14853C27.5437 4.7069 27.2501 4.29175 26.8128 4.21226H26.8106Z" fill="white"/>
<path d="M18.8169 8.80999C18.6359 8.92261 15.4671 10.9055 11.2164 14.8383C10.8874 15.143 10.8675 15.6553 11.1722 15.9844C11.477 16.3112 11.9871 16.331 12.3161 16.0285C16.4409 12.2084 19.4948 10.2961 19.6715 10.1879C23.0478 8.09675 27.2897 8.53397 30.167 10.9784C30.496 11.2567 30.9862 11.2235 31.2799 10.9078C31.5934 10.5699 31.5625 10.0377 31.2114 9.73963C27.813 6.85575 22.8049 6.33904 18.8169 8.80999Z" fill="white"/>
<path d="M9.39215 17.7592C9.34357 17.7084 9.28837 17.6687 9.23096 17.6356V19.0665C9.28616 19.009 9.34357 18.9472 9.39657 18.8898C9.7013 18.574 9.69909 18.0728 9.39215 17.7592Z" fill="white"/>
<path d="M19.1057 12.4685C17.0101 14.0562 12.8941 17.4612 9.22852 21.4425V23.8847C9.3588 23.7346 9.48466 23.58 9.61495 23.4321C13.3998 19.1438 17.9022 15.4098 20.0817 13.7603C20.4262 13.4997 20.5057 13.0139 20.2606 12.6584C20 12.2764 19.4722 12.1902 19.1057 12.4707V12.4685Z" fill="white"/>
<path d="M16.5994 18.6984C14.8903 20.2199 12.9118 22.1476 10.8317 24.5037C10.2862 25.122 9.75406 25.7514 9.22852 26.3895V28.9819C10.1361 27.816 11.0746 26.6788 12.0461 25.5769C14.0843 23.2672 16.0142 21.3858 17.6748 19.9063C18.0016 19.617 18.0391 19.1202 17.7609 18.7846C17.4672 18.4313 16.9417 18.3915 16.5994 18.6962V18.6984Z" fill="white"/>
<path d="M14.7094 26.3185C14.3694 25.9939 13.8284 26.0138 13.5148 26.3649C13.4309 26.4598 13.347 26.5526 13.2631 26.6497C11.8454 28.2551 10.5029 29.9377 9.23096 31.6822V34.5771C11.0571 31.8809 12.8722 29.6065 14.5107 27.7494C14.5924 27.6566 14.6741 27.5639 14.7558 27.4734C15.0539 27.1399 15.0363 26.6276 14.7116 26.3185H14.7094Z" fill="white"/>
<path d="M13.1814 33.259C12.8214 32.9785 12.3003 33.0492 12.0309 33.4179C11.1057 34.681 10.165 36.0611 9.23096 37.5516V39.1835C9.60414 39.3822 10.0745 39.263 10.2997 38.8964C11.3111 37.2535 12.3334 35.7498 13.336 34.3807C13.5965 34.0274 13.5281 33.5306 13.1814 33.2612V33.259Z" fill="white"/>
<path d="M18.0747 44.6888C18.1961 44.4834 18.3154 44.2758 18.4368 44.0749V41.0519C17.6883 42.1781 16.9375 43.3903 16.2021 44.6888H18.0725H18.0747Z" fill="white"/>
<path d="M15.3587 41.471C14.9767 41.2436 14.4821 41.3672 14.2524 41.747C13.6871 42.6789 13.1263 43.6615 12.5742 44.6883H14.4247C14.8266 43.9663 15.2307 43.2596 15.6392 42.5884C15.8732 42.2041 15.7474 41.7007 15.3609 41.471H15.3587Z" fill="white"/>
<path d="M32.5655 31.7834C32.2916 31.4036 31.7529 31.3352 31.3907 31.6333C30.3109 32.5254 28.986 33.7112 27.5684 35.173L28.4848 36.5575C29.9488 35.025 31.3223 33.7951 32.4263 32.8831C32.7554 32.6115 32.8172 32.1301 32.5677 31.7834H32.5655Z" fill="white"/>
<path d="M30.6885 39.8923C33.0357 36.9642 35.4404 34.6147 37.6442 32.7576L36.7985 31.351C34.5726 33.2059 32.1414 35.5598 29.7544 38.4768L30.6907 39.8923H30.6885Z" fill="white"/>
<path d="M38.662 34.4507C38.2888 34.8018 37.9068 35.1463 37.5071 35.4731C37.167 35.7514 37.114 36.2504 37.3834 36.5971C37.6639 36.957 38.1828 37.0144 38.5361 36.7252C38.8717 36.4514 39.1985 36.1643 39.5165 35.8706L38.662 34.4507Z" fill="white"/>
<path d="M41.1258 38.5434L40.2845 37.1456C38.1183 38.8216 35.6937 41.021 33.3044 43.8475L33.8609 44.6888H34.7177C36.9126 42.1251 39.1296 40.1024 41.1258 38.5434Z" fill="white"/>
<path d="M36.2853 37.2071C36.0115 36.8362 35.4837 36.7699 35.1238 37.0592C34.1743 37.8276 32.7632 39.0598 31.2197 40.6983L32.1383 42.0872C33.726 40.3714 35.19 39.0929 36.1462 38.3201C36.484 38.0462 36.5436 37.556 36.2853 37.2071Z" fill="white"/>
<path d="M39.488 43.9841C39.8148 43.6993 39.859 43.2091 39.5896 42.869C39.3025 42.5069 38.7726 42.4583 38.4237 42.7608C37.8385 43.2687 37.1319 43.9201 36.3767 44.6907H38.7019C38.9824 44.4324 39.2473 44.1939 39.488 43.9863V43.9841Z" fill="white"/>
<path d="M42.0288 40.0473C41.6114 40.3697 41.1853 40.6833 40.7481 40.9814C40.3881 41.2287 40.2843 41.7145 40.5162 42.0832C40.7591 42.4719 41.278 42.5823 41.6578 42.3239C42.0708 42.0413 42.4726 41.7454 42.8701 41.4451L42.0288 40.0473Z" fill="white"/>
<path d="M44.5396 44.2131L43.6983 42.8176C43.1021 43.2791 42.4904 43.7229 41.8589 44.1425C41.8456 44.1513 41.8324 44.1601 41.8214 44.169C41.7109 44.2507 41.4813 44.4295 41.1655 44.6879H43.9103C44.1223 44.5333 44.3298 44.3721 44.5374 44.2131H44.5396Z" fill="white"/>
<path d="M30.7763 14.2469C30.7189 14.1431 30.6571 14.0371 30.593 13.9356C28.694 10.8728 24.8871 9.69808 21.6521 10.9943C21.2083 11.1731 21.0096 11.6921 21.2282 12.1182C21.4203 12.4936 21.8663 12.6548 22.2594 12.498C24.7767 11.4911 27.7379 12.4053 29.2151 14.7879C29.2637 14.8674 29.3123 14.9491 29.3565 15.0308C29.5618 15.404 29.723 15.7904 29.8379 16.1857C29.9483 16.5655 30.3148 16.8106 30.7079 16.7664C31.2069 16.7112 31.5381 16.2188 31.3968 15.7374C31.2489 15.2296 31.0413 14.7283 30.7763 14.2469Z" fill="white"/>
<path d="M23.9384 17.0791C23.7816 17.1762 20.8448 19.0156 16.8634 22.8755C16.5388 23.1891 16.5234 23.7036 16.8281 24.037C17.1439 24.3815 17.6849 24.3992 18.0205 24.0724C21.9025 20.3163 24.7775 18.5166 24.8129 18.4923C25.2037 18.2516 25.3229 17.7393 25.0823 17.3485C24.8394 16.9576 24.3271 16.8384 23.9384 17.0791Z" fill="white"/>
<path d="M21.7715 1.75912C21.7119 1.30865 22.0321 0.895725 22.4826 0.847145C28.8002 0.169235 35.2569 3.06194 38.8209 8.81645C38.9688 9.05493 39.1101 9.29783 39.2448 9.54073C40.2827 11.4177 40.9275 13.4139 41.2035 15.4321C41.2675 15.8981 40.9164 16.3176 40.4483 16.3463C40.0243 16.3706 39.6556 16.0659 39.5982 15.6463C39.3464 13.8246 38.7635 12.0227 37.825 10.3268C37.7035 10.106 37.5733 9.88521 37.4408 9.67101C34.2146 4.46413 28.3718 1.84524 22.657 2.46132C22.222 2.50769 21.829 2.19634 21.7715 1.76133V1.75912Z" fill="white"/>
<path d="M40.6695 19.6612H40.6739C41.1178 19.7363 41.4181 20.1603 41.3364 20.6019C40.5834 24.676 38.362 28.4608 34.8929 31.0907C34.5286 31.3668 34.0074 31.2851 33.7447 30.9097L33.7402 30.9053C33.4907 30.5497 33.568 30.0595 33.9147 29.7968C37.0525 27.4163 39.0597 23.9959 39.7421 20.3126C39.8238 19.8776 40.2345 19.5861 40.6695 19.659V19.6612Z" fill="white"/>
<path d="M10.4739 44.693C13.9982 38.2253 18.0237 33.4291 21.2763 30.1809L21.2808 30.1765C21.5789 29.8784 21.5855 29.397 21.2918 29.0944L21.2366 29.037C20.9385 28.7279 20.4439 28.7213 20.1391 29.026C20.1369 29.0282 20.1325 29.0326 20.1303 29.0348C16.6635 32.4972 12.3421 37.6688 8.63232 44.6952H10.4717L10.4739 44.693Z" fill="white"/>
<path fill-rule="evenodd" clip-rule="evenodd" d="M10.4277 48.3306C9.43613 48.3306 8.63232 49.1345 8.63232 50.126V61.7958C8.63232 62.7874 9.43614 63.5912 10.4277 63.5912H42.7441C43.7357 63.5912 44.5395 62.7874 44.5395 61.7958V50.126C44.5395 49.1345 43.7357 48.3306 42.7441 48.3306H10.4277ZM31.4807 55.8173C31.4807 58.4431 33.5678 60.6244 36.2204 60.6244C38.8327 60.6244 40.9467 58.4431 40.9467 55.8173C40.9467 53.1916 38.8327 51.0237 36.2204 51.0237C33.5678 51.0237 31.4807 53.1916 31.4807 55.8173ZM38.8192 55.8173C38.8192 57.3658 37.7555 58.6316 36.207 58.6316C34.645 58.6316 33.6082 57.3658 33.6082 55.8173C33.6082 54.2688 34.645 53.0166 36.207 53.0166C37.7555 53.0166 38.8192 54.2688 38.8192 55.8173ZM12.3896 51.1853H16.2137C18.3681 51.1853 19.3376 52.7204 19.3376 54.2554C19.3376 55.8039 18.3681 57.312 16.2137 57.312H14.5036V60.4628H12.3896V51.1853ZM14.5036 55.4672H16.1194C16.9139 55.4672 17.2101 54.8478 17.2101 54.2554C17.2101 53.6629 16.9139 53.03 16.1329 53.03H14.5036V55.4672ZM29.2226 60.4628H26.7585L24.631 57.2043H24.2001V60.4628H22.0861V51.1853H25.8833C28.0377 51.1853 29.0072 52.7204 29.0072 54.2554C29.0072 55.5615 28.0377 56.8138 26.8393 57.0831L29.2226 60.4628ZM25.6005 53.03H24.2001V55.5346H25.5467C26.4757 55.5346 26.8797 54.9286 26.8797 54.3092C26.8797 53.6898 26.4623 53.03 25.6005 53.03Z" fill="#D9D9D9"/>
<path fill-rule="evenodd" clip-rule="evenodd" d="M10.4277 48.3306C9.43613 48.3306 8.63232 49.1345 8.63232 50.126V61.7958C8.63232 62.7874 9.43614 63.5912 10.4277 63.5912H42.7441C43.7357 63.5912 44.5395 62.7874 44.5395 61.7958V50.126C44.5395 49.1345 43.7357 48.3306 42.7441 48.3306H10.4277ZM31.4807 55.8173C31.4807 58.4431 33.5678 60.6244 36.2204 60.6244C38.8327 60.6244 40.9467 58.4431 40.9467 55.8173C40.9467 53.1916 38.8327 51.0237 36.2204 51.0237C33.5678 51.0237 31.4807 53.1916 31.4807 55.8173ZM38.8192 55.8173C38.8192 57.3658 37.7555 58.6316 36.207 58.6316C34.645 58.6316 33.6082 57.3658 33.6082 55.8173C33.6082 54.2688 34.645 53.0166 36.207 53.0166C37.7555 53.0166 38.8192 54.2688 38.8192 55.8173ZM12.3896 51.1853H16.2137C18.3681 51.1853 19.3376 52.7204 19.3376 54.2554C19.3376 55.8039 18.3681 57.312 16.2137 57.312H14.5036V60.4628H12.3896V51.1853ZM14.5036 55.4672H16.1194C16.9139 55.4672 17.2101 54.8478 17.2101 54.2554C17.2101 53.6629 16.9139 53.03 16.1329 53.03H14.5036V55.4672ZM29.2226 60.4628H26.7585L24.631 57.2043H24.2001V60.4628H22.0861V51.1853H25.8833C28.0377 51.1853 29.0072 52.7204 29.0072 54.2554C29.0072 55.5615 28.0377 56.8138 26.8393 57.0831L29.2226 60.4628ZM25.6005 53.03H24.2001V55.5346H25.5467C26.4757 55.5346 26.8797 54.9286 26.8797 54.3092C26.8797 53.6898 26.4623 53.03 25.6005 53.03Z" fill="url(#paint0_linear_2394_14112)"/>
<defs>
<linearGradient id="paint0_linear_2394_14112" x1="44.5395" y1="48.3306" x2="40.5496" y2="70.1358" gradientUnits="userSpaceOnUse">
<stop offset="0.234896" stop-color="#DDAC2D"/>
<stop offset="1" stop-color="#7A6737"/>
</linearGradient>
</defs>
</svg>
